<?xml version="1.0" encoding="UTF-8"?>
<svg xmlns="http://www.w3.org/2000/svg"
     xmlns:xlink="http://www.w3.org/1999/xlink"
     version="1.2"
     width="203.2mm" height="203.2mm" viewBox="0 0 203.2 203.2"
     stroke="none"
     fill="#000000"
     stroke-width="0.3"
     font-size="3.88"
>
<g stroke-width="1.22" stroke="#BBBBBB" id="img-d1645fb7-1">
  <g transform="translate(58.65,38.45)">
    <path fill="none" d="M-38.93,17.91 L 38.93 -17.91" class="primitive"/>
  </g>
  <g transform="translate(18.47,94.51)">
    <path fill="none" d="M1.25,-38.15 L -1.25 38.15" class="primitive"/>
  </g>
  <g transform="translate(66.5,34.84)">
    <path fill="none" d="M38.93,-17.91 L -38.93 17.91" class="primitive"/>
  </g>
  <g transform="translate(142.08,37.38)">
    <path fill="none" d="M-36.64,-20.44 L 36.64 20.44" class="primitive"/>
  </g>
  <g transform="translate(149.62,41.59)">
    <path fill="none" d="M36.64,20.44 L -36.64 -20.44" class="primitive"/>
  </g>
  <g transform="translate(184.94,100.26)">
    <path fill="none" d="M1.33,-38.23 L -1.33 38.23" class="primitive"/>
  </g>
  <g transform="translate(184.64,108.9)">
    <path fill="none" d="M-1.33,38.23 L 1.33 -38.23" class="primitive"/>
  </g>
  <g transform="translate(144.08,164.92)">
    <path fill="none" d="M39.24,-17.78 L -39.24 17.78" class="primitive"/>
  </g>
  <g transform="translate(136.21,168.48)">
    <path fill="none" d="M-39.24,17.78 L 39.24 -17.78" class="primitive"/>
  </g>
  <g transform="translate(60.72,165.9)">
    <path fill="none" d="M36.25,20.37 L -36.25 -20.37" class="primitive"/>
  </g>
  <g transform="translate(18.19,103.14)">
    <path fill="none" d="M-1.25,38.15 L 1.25 -38.15" class="primitive"/>
  </g>
  <g transform="translate(53.18,161.67)">
    <path fill="none" d="M-36.25,-20.37 L 36.25 20.37" class="primitive"/>
  </g>
</g>
<g stroke="#BBBBBB" fill="#AAAAFF" id="img-d1645fb7-2">
  <g transform="translate(19.72,56.35)">
    <circle cx="0" cy="0" r="8.64" class="primitive"/>
  </g>
  <g transform="translate(105.43,16.93)">
    <circle cx="0" cy="0" r="8.64" class="primitive"/>
  </g>
  <g transform="translate(186.27,62.03)">
    <circle cx="0" cy="0" r="8.64" class="primitive"/>
  </g>
  <g transform="translate(183.31,147.13)">
    <circle cx="0" cy="0" r="8.64" class="primitive"/>
  </g>
  <g transform="translate(96.97,186.27)">
    <circle cx="0" cy="0" r="8.64" class="primitive"/>
  </g>
  <g transform="translate(16.93,141.3)">
    <circle cx="0" cy="0" r="8.64" class="primitive"/>
  </g>
</g>
<g font-size="4" stroke="#000000" stroke-opacity="0.000" fill="#000000" id="img-d1645fb7-3">
</g>
</svg>
