<?xml version="1.0" encoding="UTF-8"?>
<svg xmlns="http://www.w3.org/2000/svg"
     xmlns:xlink="http://www.w3.org/1999/xlink"
     version="1.2"
     width="203.2mm" height="203.2mm" viewBox="0 0 203.2 203.2"
     stroke="none"
     fill="#000000"
     stroke-width="0.3"
     font-size="3.88"
>
<g stroke-width="1.22" stroke="#BBBBBB" id="img-2a8cdc4a-1">
  <g transform="translate(99.03,181.76)">
    <path fill="none" d="M38.33,4.51 L -38.33 -4.51" class="primitive"/>
  </g>
  <g transform="translate(159.48,151.8)">
    <path fill="none" d="M-22.12,34.46 L 22.12 -34.46" class="primitive"/>
  </g>
  <g transform="translate(90.44,180.75)">
    <path fill="none" d="M-38.33,-4.51 L 38.33 4.51" class="primitive"/>
  </g>
  <g transform="translate(36.21,138.74)">
    <path fill="none" d="M15.9,37.5 L -15.9 -37.5" class="primitive"/>
  </g>
  <g transform="translate(32.83,130.78)">
    <path fill="none" d="M-15.9,-37.5 L 15.9 37.5" class="primitive"/>
  </g>
  <g transform="translate(38.88,58.75)">
    <path fill="none" d="M-21.94,34.53 L 21.94 -34.53" class="primitive"/>
  </g>
  <g transform="translate(43.51,51.46)">
    <path fill="none" d="M21.94,-34.53 L -21.94 34.53" class="primitive"/>
  </g>
  <g transform="translate(103.9,21.37)">
    <path fill="none" d="M-38.45,-4.44 L 38.45 4.44" class="primitive"/>
  </g>
  <g transform="translate(112.49,22.36)">
    <path fill="none" d="M38.45,4.44 L -38.45 -4.44" class="primitive"/>
  </g>
  <g transform="translate(166.91,64.45)">
    <path fill="none" d="M-15.98,-37.66 L 15.98 37.66" class="primitive"/>
  </g>
  <g transform="translate(164.15,144.53)">
    <path fill="none" d="M22.12,-34.46 L -22.12 34.46" class="primitive"/>
  </g>
  <g transform="translate(170.29,72.41)">
    <path fill="none" d="M15.98,37.66 L -15.98 -37.66" class="primitive"/>
  </g>
</g>
<g stroke="#BBBBBB" fill="#AAAAFF" id="img-2a8cdc4a-2">
  <g transform="translate(137.36,186.27)">
    <circle cx="0" cy="0" r="8.64" class="primitive"/>
  </g>
  <g transform="translate(52.11,176.24)">
    <circle cx="0" cy="0" r="8.64" class="primitive"/>
  </g>
  <g transform="translate(16.93,93.28)">
    <circle cx="0" cy="0" r="8.64" class="primitive"/>
  </g>
  <g transform="translate(65.45,16.93)">
    <circle cx="0" cy="0" r="8.64" class="primitive"/>
  </g>
  <g transform="translate(150.94,26.8)">
    <circle cx="0" cy="0" r="8.64" class="primitive"/>
  </g>
  <g transform="translate(186.27,110.07)">
    <circle cx="0" cy="0" r="8.64" class="primitive"/>
  </g>
</g>
<g font-size="4" stroke="#000000" stroke-opacity="0.000" fill="#000000" id="img-2a8cdc4a-3">
</g>
</svg>
